<mxfile host="app.diagrams.net" agent="Mozilla/5.0 (Windows NT 10.0; Win64; x64) AppleWebKit/537.36 (KHTML, like Gecko) Chrome/131.0.0.0 Safari/537.36" version="25.0.0">
  <diagram name="Página-1" id="-rSg4MmFbrgNMTSkPn9S">
    <mxGraphModel dx="1434" dy="780" grid="1" gridSize="10" guides="1" tooltips="1" connect="1" arrows="1" fold="1" page="1" pageScale="1" pageWidth="827" pageHeight="1169" math="0" shadow="0">
      <root>
        <mxCell id="0" />
        <mxCell id="1" parent="0" />
        <mxCell id="r_KFKhU7NYawZzJe7coI-10" style="edgeStyle=orthogonalEdgeStyle;rounded=0;orthogonalLoop=1;jettySize=auto;html=1;exitX=0;exitY=0.5;exitDx=0;exitDy=0;entryX=0.5;entryY=1;entryDx=0;entryDy=0;curved=1;" edge="1" parent="1" source="r_KFKhU7NYawZzJe7coI-8" target="r_KFKhU7NYawZzJe7coI-5">
          <mxGeometry relative="1" as="geometry" />
        </mxCell>
        <mxCell id="r_KFKhU7NYawZzJe7coI-11" style="edgeStyle=orthogonalEdgeStyle;rounded=0;orthogonalLoop=1;jettySize=auto;html=1;exitX=0;exitY=1;exitDx=0;exitDy=0;entryX=1;entryY=0.5;entryDx=0;entryDy=0;curved=1;" edge="1" parent="1" source="r_KFKhU7NYawZzJe7coI-8" target="r_KFKhU7NYawZzJe7coI-6">
          <mxGeometry relative="1" as="geometry" />
        </mxCell>
        <mxCell id="r_KFKhU7NYawZzJe7coI-12" style="edgeStyle=orthogonalEdgeStyle;rounded=0;orthogonalLoop=1;jettySize=auto;html=1;exitX=0;exitY=0;exitDx=0;exitDy=0;entryX=0;entryY=0.5;entryDx=0;entryDy=0;curved=1;" edge="1" parent="1" source="r_KFKhU7NYawZzJe7coI-8" target="r_KFKhU7NYawZzJe7coI-4">
          <mxGeometry relative="1" as="geometry" />
        </mxCell>
        <mxCell id="r_KFKhU7NYawZzJe7coI-8" value="" style="ellipse;whiteSpace=wrap;html=1;direction=south;" vertex="1" parent="1">
          <mxGeometry x="205" y="360" width="80" height="115" as="geometry" />
        </mxCell>
        <mxCell id="r_KFKhU7NYawZzJe7coI-1" value="Usuário" style="shape=umlActor;verticalLabelPosition=bottom;verticalAlign=top;html=1;outlineConnect=0;" vertex="1" parent="1">
          <mxGeometry x="230" y="385" width="30" height="60" as="geometry" />
        </mxCell>
        <mxCell id="r_KFKhU7NYawZzJe7coI-4" value="Gerenciamento de Tarefas" style="ellipse;whiteSpace=wrap;html=1;" vertex="1" parent="1">
          <mxGeometry x="340" y="300" width="120" height="80" as="geometry" />
        </mxCell>
        <mxCell id="r_KFKhU7NYawZzJe7coI-5" value="Cadastro de&amp;nbsp;&lt;div&gt;Usuário&lt;/div&gt;" style="ellipse;whiteSpace=wrap;html=1;" vertex="1" parent="1">
          <mxGeometry x="185" y="210" width="120" height="80" as="geometry" />
        </mxCell>
        <mxCell id="r_KFKhU7NYawZzJe7coI-6" value="Exibição de Tarefas por Status" style="ellipse;whiteSpace=wrap;html=1;" vertex="1" parent="1">
          <mxGeometry x="30" y="300" width="120" height="80" as="geometry" />
        </mxCell>
      </root>
    </mxGraphModel>
  </diagram>
</mxfile>
